<mxfile host="app.diagrams.net" agent="Mozilla/5.0 (Windows NT 10.0; Win64; x64) AppleWebKit/537.36 (KHTML, like Gecko) Chrome/135.0.0.0 Safari/537.36 Edg/135.0.0.0" version="27.0.6">
  <diagram name="Página-1" id="puuZh4EdLjUnwxaKI_Gj">
    <mxGraphModel dx="2218" dy="1556" grid="0" gridSize="10" guides="1" tooltips="1" connect="1" arrows="1" fold="1" page="0" pageScale="1" pageWidth="2000" pageHeight="2000" math="0" shadow="0">
      <root>
        <mxCell id="0" />
        <mxCell id="1" parent="0" />
        <mxCell id="55Vrt-mXsHKYFI6cj5mB-34" value="" style="rounded=0;whiteSpace=wrap;html=1;rotation=-90;" parent="1" vertex="1">
          <mxGeometry x="-426.5" y="4.5" width="1133" height="200" as="geometry" />
        </mxCell>
        <mxCell id="_jAADGRznZQ2d4b5v9Fu-1" value="Pessoa" style="shape=umlActor;verticalLabelPosition=bottom;verticalAlign=top;html=1;outlineConnect=0;" parent="1" vertex="1">
          <mxGeometry x="-329" y="-232" width="30" height="60" as="geometry" />
        </mxCell>
        <mxCell id="_jAADGRznZQ2d4b5v9Fu-4" value="Fazer cadastro" style="ellipse;whiteSpace=wrap;html=1;" parent="1" vertex="1">
          <mxGeometry x="61" y="576" width="120" height="80" as="geometry" />
        </mxCell>
        <mxCell id="_jAADGRznZQ2d4b5v9Fu-5" value="" style="endArrow=none;html=1;rounded=0;fontSize=12;startSize=8;endSize=8;curved=1;" parent="1" source="_jAADGRznZQ2d4b5v9Fu-6" target="55Vrt-mXsHKYFI6cj5mB-1" edge="1">
          <mxGeometry width="50" height="50" relative="1" as="geometry">
            <mxPoint x="205" y="245" as="sourcePoint" />
            <mxPoint x="185" y="122" as="targetPoint" />
          </mxGeometry>
        </mxCell>
        <mxCell id="_jAADGRznZQ2d4b5v9Fu-6" value="Fazer login" style="ellipse;whiteSpace=wrap;html=1;" parent="1" vertex="1">
          <mxGeometry x="59" y="485" width="120" height="80" as="geometry" />
        </mxCell>
        <mxCell id="_jAADGRznZQ2d4b5v9Fu-7" value="" style="endArrow=none;html=1;rounded=0;fontSize=12;startSize=8;endSize=8;curved=1;" parent="1" source="_jAADGRznZQ2d4b5v9Fu-8" target="_jAADGRznZQ2d4b5v9Fu-1" edge="1">
          <mxGeometry width="50" height="50" relative="1" as="geometry">
            <mxPoint x="215" y="255" as="sourcePoint" />
            <mxPoint x="200" y="134" as="targetPoint" />
          </mxGeometry>
        </mxCell>
        <mxCell id="_jAADGRznZQ2d4b5v9Fu-8" value="Consultar extrato" style="ellipse;whiteSpace=wrap;html=1;" parent="1" vertex="1">
          <mxGeometry x="59" y="-433" width="120" height="80" as="geometry" />
        </mxCell>
        <mxCell id="_jAADGRznZQ2d4b5v9Fu-9" value="" style="endArrow=none;html=1;rounded=0;fontSize=12;startSize=8;endSize=8;curved=1;" parent="1" source="_jAADGRznZQ2d4b5v9Fu-10" target="_jAADGRznZQ2d4b5v9Fu-1" edge="1">
          <mxGeometry width="50" height="50" relative="1" as="geometry">
            <mxPoint x="366" y="255" as="sourcePoint" />
            <mxPoint x="335" y="92" as="targetPoint" />
          </mxGeometry>
        </mxCell>
        <mxCell id="_jAADGRznZQ2d4b5v9Fu-10" value="Consultar saldo" style="ellipse;whiteSpace=wrap;html=1;" parent="1" vertex="1">
          <mxGeometry x="61" y="-312" width="120" height="80" as="geometry" />
        </mxCell>
        <mxCell id="_jAADGRznZQ2d4b5v9Fu-17" style="edgeStyle=none;curved=1;rounded=0;orthogonalLoop=1;jettySize=auto;html=1;fontSize=12;startSize=8;endSize=8;endArrow=none;startFill=0;" parent="1" source="_jAADGRznZQ2d4b5v9Fu-11" target="_jAADGRznZQ2d4b5v9Fu-16" edge="1">
          <mxGeometry relative="1" as="geometry" />
        </mxCell>
        <mxCell id="_jAADGRznZQ2d4b5v9Fu-13" style="edgeStyle=none;curved=1;rounded=0;orthogonalLoop=1;jettySize=auto;html=1;fontSize=12;startSize=8;endSize=8;endArrow=block;endFill=0;" parent="1" source="_jAADGRznZQ2d4b5v9Fu-11" target="_jAADGRznZQ2d4b5v9Fu-1" edge="1">
          <mxGeometry relative="1" as="geometry">
            <mxPoint x="296" y="31" as="targetPoint" />
          </mxGeometry>
        </mxCell>
        <mxCell id="_jAADGRznZQ2d4b5v9Fu-15" style="edgeStyle=none;curved=1;rounded=0;orthogonalLoop=1;jettySize=auto;html=1;fontSize=12;startSize=8;endSize=8;endArrow=block;endFill=0;" parent="1" source="_jAADGRznZQ2d4b5v9Fu-14" target="_jAADGRznZQ2d4b5v9Fu-1" edge="1">
          <mxGeometry relative="1" as="geometry" />
        </mxCell>
        <mxCell id="_jAADGRznZQ2d4b5v9Fu-14" value="Aluno" style="shape=umlActor;verticalLabelPosition=bottom;verticalAlign=top;html=1;outlineConnect=0;" parent="1" vertex="1">
          <mxGeometry x="-105" y="-17" width="30" height="60" as="geometry" />
        </mxCell>
        <mxCell id="-vmiz_rj6W9Z9cPhy4cW-4" style="rounded=0;orthogonalLoop=1;jettySize=auto;html=1;endArrow=none;startFill=0;" edge="1" parent="1" source="_jAADGRznZQ2d4b5v9Fu-16" target="-vmiz_rj6W9Z9cPhy4cW-3">
          <mxGeometry relative="1" as="geometry" />
        </mxCell>
        <mxCell id="_jAADGRznZQ2d4b5v9Fu-16" value="Distribuir moedas" style="ellipse;whiteSpace=wrap;html=1;" parent="1" vertex="1">
          <mxGeometry x="61" y="-124" width="120" height="80" as="geometry" />
        </mxCell>
        <mxCell id="55Vrt-mXsHKYFI6cj5mB-1" value="Usuario" style="shape=umlActor;verticalLabelPosition=bottom;verticalAlign=top;html=1;outlineConnect=0;" parent="1" vertex="1">
          <mxGeometry x="-508" y="-50" width="30" height="60" as="geometry" />
        </mxCell>
        <mxCell id="55Vrt-mXsHKYFI6cj5mB-4" value="" style="endArrow=block;html=1;rounded=0;endFill=0;" parent="1" source="_jAADGRznZQ2d4b5v9Fu-1" target="55Vrt-mXsHKYFI6cj5mB-1" edge="1">
          <mxGeometry width="50" height="50" relative="1" as="geometry">
            <mxPoint x="-13" y="170" as="sourcePoint" />
            <mxPoint x="37" y="120" as="targetPoint" />
          </mxGeometry>
        </mxCell>
        <mxCell id="55Vrt-mXsHKYFI6cj5mB-5" value="Empresa" style="shape=umlActor;verticalLabelPosition=bottom;verticalAlign=top;html=1;outlineConnect=0;" parent="1" vertex="1">
          <mxGeometry x="-272" y="17" width="30" height="60" as="geometry" />
        </mxCell>
        <mxCell id="55Vrt-mXsHKYFI6cj5mB-6" value="" style="endArrow=block;html=1;rounded=0;endFill=0;" parent="1" source="55Vrt-mXsHKYFI6cj5mB-5" target="55Vrt-mXsHKYFI6cj5mB-1" edge="1">
          <mxGeometry width="50" height="50" relative="1" as="geometry">
            <mxPoint x="109" y="146" as="sourcePoint" />
            <mxPoint x="159" y="96" as="targetPoint" />
          </mxGeometry>
        </mxCell>
        <mxCell id="55Vrt-mXsHKYFI6cj5mB-7" value="" style="endArrow=none;html=1;rounded=0;fontSize=12;startSize=8;endSize=8;curved=1;" parent="1" source="_jAADGRznZQ2d4b5v9Fu-4" target="55Vrt-mXsHKYFI6cj5mB-1" edge="1">
          <mxGeometry width="50" height="50" relative="1" as="geometry">
            <mxPoint x="12" y="-12" as="sourcePoint" />
            <mxPoint x="-392" y="15" as="targetPoint" />
          </mxGeometry>
        </mxCell>
        <mxCell id="_jAADGRznZQ2d4b5v9Fu-11" value="Professor" style="shape=umlActor;verticalLabelPosition=bottom;verticalAlign=top;html=1;outlineConnect=0;" parent="1" vertex="1">
          <mxGeometry x="-105" y="-149" width="30" height="60" as="geometry" />
        </mxCell>
        <mxCell id="55Vrt-mXsHKYFI6cj5mB-8" value="Receber cupom de troca" style="ellipse;whiteSpace=wrap;html=1;" parent="1" vertex="1">
          <mxGeometry x="59" y="229" width="120" height="80" as="geometry" />
        </mxCell>
        <mxCell id="55Vrt-mXsHKYFI6cj5mB-10" value="" style="endArrow=none;html=1;rounded=0;" parent="1" source="_jAADGRznZQ2d4b5v9Fu-14" target="55Vrt-mXsHKYFI6cj5mB-8" edge="1">
          <mxGeometry width="50" height="50" relative="1" as="geometry">
            <mxPoint x="6" y="-94" as="sourcePoint" />
            <mxPoint x="56" y="-144" as="targetPoint" />
          </mxGeometry>
        </mxCell>
        <mxCell id="-vmiz_rj6W9Z9cPhy4cW-6" style="rounded=0;orthogonalLoop=1;jettySize=auto;html=1;endArrow=none;startFill=0;" edge="1" parent="1" source="55Vrt-mXsHKYFI6cj5mB-11" target="-vmiz_rj6W9Z9cPhy4cW-5">
          <mxGeometry relative="1" as="geometry" />
        </mxCell>
        <mxCell id="55Vrt-mXsHKYFI6cj5mB-11" value="Resgatar vantagem" style="ellipse;whiteSpace=wrap;html=1;" parent="1" vertex="1">
          <mxGeometry x="61" y="59" width="120" height="80" as="geometry" />
        </mxCell>
        <mxCell id="55Vrt-mXsHKYFI6cj5mB-12" value="" style="endArrow=none;html=1;rounded=0;" parent="1" source="_jAADGRznZQ2d4b5v9Fu-14" target="55Vrt-mXsHKYFI6cj5mB-11" edge="1">
          <mxGeometry width="50" height="50" relative="1" as="geometry">
            <mxPoint x="6" y="-94" as="sourcePoint" />
            <mxPoint x="56" y="-144" as="targetPoint" />
          </mxGeometry>
        </mxCell>
        <mxCell id="55Vrt-mXsHKYFI6cj5mB-13" value="Receber notificação de moedas" style="ellipse;whiteSpace=wrap;html=1;" parent="1" vertex="1">
          <mxGeometry x="61" y="144" width="120" height="80" as="geometry" />
        </mxCell>
        <mxCell id="55Vrt-mXsHKYFI6cj5mB-14" value="" style="endArrow=none;html=1;rounded=0;" parent="1" source="_jAADGRznZQ2d4b5v9Fu-14" target="55Vrt-mXsHKYFI6cj5mB-13" edge="1">
          <mxGeometry width="50" height="50" relative="1" as="geometry">
            <mxPoint x="-22" y="-123" as="sourcePoint" />
            <mxPoint x="71" y="-179" as="targetPoint" />
          </mxGeometry>
        </mxCell>
        <mxCell id="55Vrt-mXsHKYFI6cj5mB-16" value="Cadastrar vantagem" style="ellipse;whiteSpace=wrap;html=1;" parent="1" vertex="1">
          <mxGeometry x="59" y="313" width="120" height="80" as="geometry" />
        </mxCell>
        <mxCell id="55Vrt-mXsHKYFI6cj5mB-17" value="Visualizar vantagem" style="ellipse;whiteSpace=wrap;html=1;" parent="1" vertex="1">
          <mxGeometry x="61" y="-27" width="120" height="80" as="geometry" />
        </mxCell>
        <mxCell id="55Vrt-mXsHKYFI6cj5mB-18" value="" style="endArrow=none;html=1;rounded=0;" parent="1" source="_jAADGRznZQ2d4b5v9Fu-14" target="55Vrt-mXsHKYFI6cj5mB-17" edge="1">
          <mxGeometry width="50" height="50" relative="1" as="geometry">
            <mxPoint x="-22" y="-122" as="sourcePoint" />
            <mxPoint x="85" y="-180" as="targetPoint" />
          </mxGeometry>
        </mxCell>
        <mxCell id="55Vrt-mXsHKYFI6cj5mB-19" value="" style="endArrow=none;html=1;rounded=0;" parent="1" source="55Vrt-mXsHKYFI6cj5mB-5" target="55Vrt-mXsHKYFI6cj5mB-16" edge="1">
          <mxGeometry width="50" height="50" relative="1" as="geometry">
            <mxPoint x="-84" y="235" as="sourcePoint" />
            <mxPoint x="-34" y="185" as="targetPoint" />
          </mxGeometry>
        </mxCell>
        <mxCell id="55Vrt-mXsHKYFI6cj5mB-24" value="Conferir troca" style="ellipse;whiteSpace=wrap;html=1;" parent="1" vertex="1">
          <mxGeometry x="59" y="399" width="120" height="80" as="geometry" />
        </mxCell>
        <mxCell id="55Vrt-mXsHKYFI6cj5mB-25" value="" style="endArrow=none;html=1;rounded=0;" parent="1" source="55Vrt-mXsHKYFI6cj5mB-5" target="55Vrt-mXsHKYFI6cj5mB-24" edge="1">
          <mxGeometry width="50" height="50" relative="1" as="geometry">
            <mxPoint x="-82" y="342" as="sourcePoint" />
            <mxPoint x="-32" y="292" as="targetPoint" />
          </mxGeometry>
        </mxCell>
        <mxCell id="55Vrt-mXsHKYFI6cj5mB-31" value="" style="endArrow=none;html=1;rounded=0;" parent="1" source="55Vrt-mXsHKYFI6cj5mB-5" target="55Vrt-mXsHKYFI6cj5mB-8" edge="1">
          <mxGeometry width="50" height="50" relative="1" as="geometry">
            <mxPoint x="39" y="108" as="sourcePoint" />
            <mxPoint x="89" y="58" as="targetPoint" />
          </mxGeometry>
        </mxCell>
        <mxCell id="55Vrt-mXsHKYFI6cj5mB-35" value="Sistema de reconhecimento de mérito estudantil" style="text;html=1;align=center;verticalAlign=middle;whiteSpace=wrap;rounded=0;rotation=-90;" parent="1" vertex="1">
          <mxGeometry x="83" y="-35" width="286" height="30" as="geometry" />
        </mxCell>
        <mxCell id="hIesImxTOCb98lZZt1HC-2" style="rounded=0;orthogonalLoop=1;jettySize=auto;html=1;endArrow=none;startFill=0;" parent="1" source="hIesImxTOCb98lZZt1HC-1" target="_jAADGRznZQ2d4b5v9Fu-11" edge="1">
          <mxGeometry relative="1" as="geometry" />
        </mxCell>
        <mxCell id="hIesImxTOCb98lZZt1HC-1" value="Receber deposito de moedas" style="ellipse;whiteSpace=wrap;html=1;" parent="1" vertex="1">
          <mxGeometry x="59" y="-218" width="120" height="80" as="geometry" />
        </mxCell>
        <mxCell id="-vmiz_rj6W9Z9cPhy4cW-3" value="Aluno" style="shape=umlActor;verticalLabelPosition=bottom;verticalAlign=top;html=1;outlineConnect=0;" vertex="1" parent="1">
          <mxGeometry x="388" y="-146" width="30" height="60" as="geometry" />
        </mxCell>
        <mxCell id="-vmiz_rj6W9Z9cPhy4cW-5" value="Empresa" style="shape=umlActor;verticalLabelPosition=bottom;verticalAlign=top;html=1;outlineConnect=0;" vertex="1" parent="1">
          <mxGeometry x="380" y="132" width="30" height="60" as="geometry" />
        </mxCell>
      </root>
    </mxGraphModel>
  </diagram>
</mxfile>
